<?xml version="1.0" encoding="UTF-8"?>
<svg width="1080" height="1080" viewBox="0 0 1080 1080" fill="none" xmlns="http://www.w3.org/2000/svg" role="img" aria-labelledby="title desc">
  <title id="title">Mold</title>
  <desc id="desc">elysian studio</desc>
  <defs>
    <linearGradient id="bg" x1="0" y1="0" x2="1080" y2="1080" gradientUnits="userSpaceOnUse">
      <stop offset="0" stop-color="#060606"/>
      <stop offset="0.42" stop-color="#16110d"/>
      <stop offset="1" stop-color="#060606"/>
    </linearGradient>
    <radialGradient id="glow" cx="50%" cy="35%" r="58%">
      <stop offset="0" stop-color="#7ed7df" stop-opacity="0.88"/>
      <stop offset="0.42" stop-color="#7ed7df" stop-opacity="0.25"/>
      <stop offset="1" stop-color="#060606" stop-opacity="0"/>
    </radialGradient>
    <filter id="softNoise">
      <feTurbulence type="fractalNoise" baseFrequency="0.75" numOctaves="3" stitchTiles="stitch"/>
      <feColorMatrix type="saturate" values="0"/>
      <feComponentTransfer>
        <feFuncA type="table" tableValues="0 0.09"/>
      </feComponentTransfer>
      <feBlend mode="soft-light" in2="SourceGraphic"/>
    </filter>
    <filter id="blurred">
      <feGaussianBlur stdDeviation="24"/>
    </filter>
  </defs>

  <rect width="1080" height="1080" fill="url(#bg)"/>
  <rect width="1080" height="1080" fill="url(#glow)" opacity="0.9"/>
  <ellipse cx="604.8" cy="518.4" rx="367.2" ry="237.6" fill="#7ed7df" opacity="0.18" filter="url(#blurred)"/>
  <path d="M -120 213.7 C 267.6 53.7, 591.6 403.7, 933.4 213.7 S 1260.0 93.7, 1340.0 213.7" fill="none" stroke="#c89b55" stroke-width="11.7" stroke-linecap="round" opacity="0.21"/>
<path d="M -120 311.1 C 256.9 151.1, 616.0 501.1, 938.2 311.1 S 1260.0 191.1, 1340.0 311.1" fill="none" stroke="#7ed7df" stroke-width="41.0" stroke-linecap="round" opacity="0.39"/>
<path d="M -120 428.8 C 229.5 268.8, 539.2 618.8, 880.0 428.8 S 1260.0 308.8, 1340.0 428.8" fill="none" stroke="#fff6e1" stroke-width="11.7" stroke-linecap="round" opacity="0.29"/>
<path d="M -120 514.4 C 262.1 354.4, 663.3 704.4, 862.2 514.4 S 1260.0 394.4, 1340.0 514.4" fill="none" stroke="#c89b55" stroke-width="39.2" stroke-linecap="round" opacity="0.18"/>
<path d="M -120 608.9 C 267.5 448.9, 551.5 798.9, 924.0 608.9 S 1260.0 488.9, 1340.0 608.9" fill="none" stroke="#7ed7df" stroke-width="21.9" stroke-linecap="round" opacity="0.43"/>
<path d="M -120 697.7 C 258.7 537.7, 551.4 887.7, 864.6 697.7 S 1260.0 577.7, 1340.0 697.7" fill="none" stroke="#fff6e1" stroke-width="36.3" stroke-linecap="round" opacity="0.24"/>
<path d="M -120 790.6 C 249.6 630.6, 647.7 980.6, 869.1 790.6 S 1260.0 670.6, 1340.0 790.6" fill="none" stroke="#c89b55" stroke-width="10.8" stroke-linecap="round" opacity="0.18"/>
<path d="M -120 901.3 C 319.1 741.3, 692.9 1091.3, 917.8 901.3 S 1260.0 781.3, 1340.0 901.3" fill="none" stroke="#7ed7df" stroke-width="38.3" stroke-linecap="round" opacity="0.23"/>
  <circle cx="689.2" cy="470.0" r="8.9" fill="#c89b55" opacity="0.39"/>
<circle cx="119.9" cy="800.8" r="8.2" fill="#fff6e1" opacity="0.37"/>
<circle cx="694.9" cy="544.1" r="4.6" fill="#c89b55" opacity="0.50"/>
<circle cx="222.9" cy="463.0" r="11.6" fill="#fff6e1" opacity="0.23"/>
<circle cx="49.3" cy="140.1" r="9.2" fill="#c89b55" opacity="0.21"/>
<circle cx="963.4" cy="293.5" r="5.3" fill="#fff6e1" opacity="0.16"/>
<circle cx="642.6" cy="126.1" r="6.8" fill="#c89b55" opacity="0.58"/>
<circle cx="858.2" cy="436.9" r="9.9" fill="#fff6e1" opacity="0.58"/>
<circle cx="392.9" cy="540.2" r="10.5" fill="#c89b55" opacity="0.26"/>
<circle cx="30.3" cy="238.3" r="2.2" fill="#fff6e1" opacity="0.39"/>
<circle cx="32.9" cy="267.2" r="12.3" fill="#c89b55" opacity="0.47"/>
<circle cx="537.3" cy="1027.8" r="6.8" fill="#fff6e1" opacity="0.35"/>
<circle cx="871.9" cy="381.9" r="7.7" fill="#c89b55" opacity="0.45"/>
<circle cx="1021.5" cy="407.4" r="8.9" fill="#fff6e1" opacity="0.54"/>
<circle cx="272.2" cy="804.3" r="5.9" fill="#c89b55" opacity="0.46"/>
<circle cx="776.3" cy="138.2" r="11.5" fill="#fff6e1" opacity="0.16"/>
<circle cx="0.3" cy="1054.9" r="8.6" fill="#c89b55" opacity="0.49"/>
<circle cx="407.6" cy="718.6" r="12.6" fill="#fff6e1" opacity="0.60"/>
<circle cx="343.6" cy="735.4" r="12.1" fill="#c89b55" opacity="0.33"/>
<circle cx="926.0" cy="302.6" r="5.9" fill="#fff6e1" opacity="0.22"/>
<circle cx="7.7" cy="230.3" r="5.3" fill="#c89b55" opacity="0.30"/>
<circle cx="531.8" cy="499.8" r="12.7" fill="#fff6e1" opacity="0.19"/>
<circle cx="1072.3" cy="333.2" r="12.2" fill="#c89b55" opacity="0.22"/>
<circle cx="1021.0" cy="678.4" r="8.3" fill="#fff6e1" opacity="0.21"/>
<circle cx="555.6" cy="1049.4" r="2.5" fill="#c89b55" opacity="0.55"/>
<circle cx="145.2" cy="498.2" r="4.4" fill="#fff6e1" opacity="0.60"/>
<circle cx="1008.9" cy="647.5" r="11.6" fill="#c89b55" opacity="0.57"/>
<circle cx="746.7" cy="391.1" r="11.0" fill="#fff6e1" opacity="0.29"/>
<circle cx="71.4" cy="817.5" r="6.4" fill="#c89b55" opacity="0.56"/>
<circle cx="0.1" cy="915.0" r="10.0" fill="#fff6e1" opacity="0.46"/>
<circle cx="994.5" cy="163.0" r="10.4" fill="#c89b55" opacity="0.33"/>
<circle cx="236.0" cy="954.5" r="8.6" fill="#fff6e1" opacity="0.43"/>
<circle cx="229.3" cy="950.5" r="12.1" fill="#c89b55" opacity="0.30"/>
<circle cx="275.5" cy="877.1" r="9.0" fill="#fff6e1" opacity="0.46"/>
  <rect x="64.8" y="75.60000000000001" width="950.4" height="928.8" rx="68" stroke="#c89b55" stroke-opacity="0.28" stroke-width="2"/>
  <rect width="1080" height="1080" fill="#fff" opacity="0.03" filter="url(#softNoise)"/>
  <g opacity="0.92">
    <text x="86.4" y="885.5999999999999" fill="#fff6e1" font-family="Cormorant Garamond, Georgia, serif" font-size="72" font-weight="600" letter-spacing="-1">Mold</text>
    <text x="86.4" y="945" fill="#c89b55" font-family="Inter, Arial, sans-serif" font-size="22" font-weight="600" letter-spacing="4">ELYSIAN STUDIO</text>
  </g>
</svg>